<svg xmlns="http://www.w3.org/2000/svg" xmlns:xlink="http://www.w3.org/1999/xlink" viewBox="0 0 598.37 288.69"><defs><style>.cls-1{fill:#bcbec0;}.cls-1,.cls-2,.cls-3{fill-rule:evenodd;}.cls-2{fill:url(#linear-gradient);}.cls-3{fill:url(#linear-gradient-2);}.cls-4{fill:url(#linear-gradient-3);}.cls-5{fill:#c8cdce;}.cls-6{fill:#fff;}</style><linearGradient id="linear-gradient" x1="411.89" y1="191.19" x2="598.37" y2="191.19" gradientUnits="userSpaceOnUse"><stop offset="0.15" stop-color="#243b55"/><stop offset="0.17" stop-color="#223952"/><stop offset="0.29" stop-color="#192d41"/><stop offset="0.43" stop-color="#142636"/><stop offset="0.6" stop-color="#122433"/></linearGradient><linearGradient id="linear-gradient-2" x1="0" y1="191.19" x2="186.48" y2="191.19" xlink:href="#linear-gradient"/><linearGradient id="linear-gradient-3" x1="93.5" y1="303.81" x2="660.86" y2="-53.31" xlink:href="#linear-gradient"/></defs><title>Laptop</title><g id="Layer_2" data-name="Layer 2"><g id="OBJECTS"><path class="cls-1" d="M517.09,15c3.38-16.77,17.18-15.82,14-9.33-2.92,5.94-12.17,9.08-13.82,9.59a.86.86,0,0,1,.11.47c0,1.19-.11,2.92-.11,2.92-.2,1.72-.46,3.44-.75,5.15,2.63-1.67,12-7.22,19.6-6.75,8.87.55-.52,12.86-19.71,7.4-.72,4.05-1.67,8.07-2.77,12.05,4.52-2.75,14.25-8.08,21.72-8.2,9.77-.15-2.19,13.76-22.28,10.19-.23.8-.47,1.6-.71,2.4l-.12.4c-1,3-2,5.94-3,8.89,5.49-1.14,21-4,29.82-1.45,10.55,3-11,13-30.28,2.74q-2.32,6.4-5,12.68c7-.93,25.94-3,35.66,0,11.66,3.61-16.16,12.85-36.33,1.6q-2.92,6.78-6.3,13.39c7.56.64,29.48,3,37.48,9,9.35,7-25.71,10.6-38.59-6.82-2.12,4-4.37,8-6.77,11.93-1.19,1.94-2.42,3.85-3.69,5.75,7.76,0,24.88.8,33.89,6.63,11.44,7.41-15.76,15.62-35.6-4.12a188.22,188.22,0,0,1-12,15.47c5.53,1.14,20.82,5.07,28.76,14.88,9.64,11.9-13.3,17.77-29.93-13.53-3.73,4.23-7.64,8.3-11.69,12.18,4.23,2.59,17.84,11.74,21.59,24.05,4.39,14.39-19.33,11.94-22.7-23-4.54,4.29-9.27,8.33-14.11,12.1,0,0-.17.27-1.64.18l.3-1.43c3.43-3.07,6.75-6.26,10-9.53,0,0,5-4.87,8.75-9q2.51-2.72,4.89-5.52c-36.06,3-42.86-18.06-27.21-16.75,13,1.09,24.7,11.2,28.68,15,4.69-5.61,9.07-11.45,13.13-17.41-29.34,6.36-47.43-16.32-33.29-16,12.64.29,29.93,12.13,34,15,3.3-4.89,6.39-9.87,9.26-14.85-20.88,6-46.16-15.28-34.5-15.88,10.17-.53,29.45,9.52,36.05,13.15q2.15-3.84,4.11-7.66c-22.74-3.38-38.12-26.33-26.73-22.4C478.56,53.72,491.7,66,496.86,71c2.49-4.92,4.75-9.8,6.78-14.58v0c-21.41-3.13-32-22.86-21.75-19.31,8.29,2.88,18.43,13.21,22.48,17.6q1.81-4.3,3.5-8.65c.39-1,.76-2,1.13-3-20.36-2.86-26.93-19.88-17.73-16.66C498.72,29,506.54,38,509.52,41.69c1.69-4.62,3.24-9.3,4.48-14-19.54-2.59-22.75-17.27-14.47-14.35,6.81,2.4,12.72,10.38,14.73,13.35.68-2.71,1.27-5.45,1.72-8.21.07-.26.13-.52.19-.78.18-.79.34-1.59.49-2.4l0,0C499.52,9.58,502.46-3.2,508.82.74c5.78,3.59,7.77,12.59,8.1,14.29l.14-.11Z"/><path class="cls-1" d="M81.28,15C77.9-1.82,64.09-.87,67.28,5.62c2.92,5.94,12.17,9.08,13.81,9.59a1,1,0,0,0-.1.47c0,1.19.1,2.92.1,2.92.21,1.72.46,3.44.76,5.15-2.63-1.67-12-7.22-19.6-6.75-8.87.55.51,12.86,19.71,7.4.72,4.05,1.66,8.07,2.76,12.05C80.2,33.7,70.48,28.37,63,28.25,53.24,28.1,65.2,42,85.29,38.44c.23.8.47,1.6.71,2.4l.12.4c1,3,2,5.94,3,8.89-5.49-1.14-21-4-29.82-1.45-10.55,3,11,13,30.28,2.74q2.33,6.4,5,12.68c-7-.93-25.93-3-35.65,0-11.66,3.61,16.15,12.85,36.33,1.6q2.92,6.78,6.3,13.39c-7.57.64-29.48,3-37.48,9-9.35,7,25.71,10.6,38.58-6.82,2.13,4,4.38,8,6.78,11.93,1.19,1.94,2.42,3.85,3.69,5.75-7.76,0-24.88.8-33.89,6.63-11.44,7.41,15.76,15.62,35.6-4.12a186.06,186.06,0,0,0,12,15.47c-5.53,1.14-20.83,5.07-28.77,14.88-9.63,11.9,13.31,17.77,29.94-13.53,3.73,4.23,7.64,8.3,11.69,12.18-4.23,2.59-17.84,11.74-21.6,24.05-4.39,14.39,19.34,11.94,22.7-23,4.55,4.29,9.27,8.33,14.11,12.1,0,0,.18.27,1.65.18l-.3-1.43c-3.43-3.07-6.75-6.26-10-9.53,0,0-5-4.87-8.76-9q-2.49-2.72-4.88-5.52c36.06,3,42.86-18.06,27.2-16.75-13,1.09-24.69,11.2-28.68,15-4.68-5.61-9.06-11.45-13.13-17.41,29.35,6.36,47.44-16.32,33.29-16-12.63.29-29.92,12.13-34,15-3.3-4.89-6.39-9.87-9.26-14.85,20.88,6,46.16-15.28,34.49-15.88-10.16-.53-29.44,9.52-36.05,13.15q-2.13-3.84-4.1-7.66c22.74-3.38,38.12-26.33,26.73-22.4C119.81,53.72,106.66,66,101.51,71c-2.49-4.92-4.75-9.8-6.78-14.58v0c21.42-3.13,32-22.86,21.76-19.31C108.19,40,98.05,50.32,94,54.71c-1.21-2.87-2.39-5.75-3.51-8.65-.38-1-.76-2-1.13-3,20.37-2.86,26.94-19.88,17.74-16.66C99.65,29,91.83,38,88.85,41.69c-1.69-4.62-3.24-9.3-4.48-14,19.54-2.59,22.75-17.27,14.47-14.35C92,15.69,86.12,23.67,84.11,26.64q-1-4.07-1.73-8.21l-.18-.78c-.18-.79-.35-1.59-.49-2.4l0,0C98.85,9.58,95.9-3.2,89.55.74,83.77,4.33,81.78,13.33,81.45,15l-.15-.11Z"/><path class="cls-2" d="M411.89,254c21.64-8.9,22.61-32.53,16.92-54.76-2-7.74-6.43-27.7,5-28.78,4.51-.43,7.44,9,8,11.58,2.36,10.86-1.1,19.62-.61,30,.17,3.76.28,10.82,6.2,8.45,6.26-2.51,7.3-10.48,8.32-16.51,2.52-14.87-1.48-30.76,3.7-44.87,1.75-4.79,3.83-10.28,7.82-13.54.68-.55,3.72-3,4.94-2.11,4.29,2.94,5,10.44,5.16,14.24.49,12.2-4.21,23.07-8.41,33.5-1,2.51-7.91,13.68-1.16,13.65,9.69-.05,15.12-8.4,18.57-15.6,7.94-16.61,8-37.57,13.85-55.38,2.17-6.62,4.06-14.11,8.83-19.16,1.05-1.11,4.55-3.9,6.66-2.87,4.67,2.3,4.31,10.86,4.14,14.17-.69,13.39-8.36,23.92-12.13,36-1,3.19-6.25,13.76.38,16.05,8.77,3,16.92-4.07,22-8.43,13.95-12,25.27-27.45,37.92-40.8,5.13-5.41,16.68-16.5,27.39-10.38,3.76,2.14,3.17,7.33,2.42,10.1-2.06,7.62-9.1,13.58-14.48,18.79-17.08,16.57-37.85,26.64-60.72,35.55-7.64,3-15.2,6-22.09,10.13-1.45.87-6.29,2.64-6.9,4.63-.14.43,3.16,2.34,3.37,2.46,4.33,2.47,9.08,2.87,13.49,2.81,13.36-.16,25.19-5.11,38.45-5.64,4.39-.17,12.6.56,14.13,6.5,2.22,8.64-7.49,14.85-13.9,17.46-18.28,7.43-39.63-1.49-59.91-2.65A59.23,59.23,0,0,0,469,220.72c-.54.16-6,1.66-5.64,2.68,1.27,3.87,8.69,6.26,12,7.24,12.08,3.64,24.48,2.58,36.58,4.59,2.49.42,12.64,1.13,14.32,4.61,4.22,8.75-9.4,11.6-15.28,12-15.35,1-28-4.54-42.84-11.62-5.07-2.42-16.09-8.61-20.56-4.51-1.81,1.66,8.36,8.21,9,8.59,9.69,5.79,20.29,9.39,29.9,15.45,2.15,1.35,8.77,5,7.43,8-2.51,5.77-14.1,1.75-19.1-.48-15.69-7-29.71-20.84-46.12-16.92Z"/><path class="cls-3" d="M186.48,254c-21.64-8.9-22.62-32.53-16.92-54.76,2-7.74,6.42-27.7-5.05-28.78-4.5-.43-7.43,9-8,11.58-2.37,10.86,1.1,19.62.61,30-.17,3.76-.28,10.82-6.2,8.45-6.26-2.51-7.3-10.48-8.32-16.51-2.52-14.87,1.48-30.76-3.7-44.87-1.75-4.79-3.83-10.28-7.82-13.54-.68-.55-3.72-3-4.94-2.11-4.29,2.94-5,10.44-5.16,14.24-.49,12.2,4.21,23.07,8.41,33.5,1,2.51,7.91,13.68,1.16,13.65-9.69-.05-15.13-8.4-18.57-15.6-7.94-16.61-8-37.57-13.85-55.38-2.17-6.62-4.06-14.11-8.83-19.16-1-1.11-4.55-3.9-6.66-2.87-4.68,2.3-4.31,10.86-4.14,14.17.69,13.39,8.36,23.92,12.13,36,1,3.19,6.25,13.76-.38,16.05-8.77,3-16.92-4.07-22-8.43-14-12-25.27-27.45-37.92-40.8-5.13-5.41-16.68-16.5-27.4-10.38-3.75,2.14-3.16,7.33-2.41,10.1,2.06,7.62,9.1,13.58,14.47,18.79C32.12,163.88,52.88,174,75.76,182.86c7.64,3,15.19,6,22.09,10.13,1.45.87,6.28,2.64,6.9,4.63.13.43-3.16,2.34-3.37,2.46-4.33,2.47-9.09,2.87-13.5,2.81-13.35-.16-25.18-5.11-38.44-5.64-4.39-.17-12.6.56-14.13,6.5-2.22,8.64,7.49,14.85,13.89,17.46,18.29,7.43,39.64-1.49,59.92-2.65a59.23,59.23,0,0,1,20.27,2.16c.54.16,6,1.66,5.64,2.68-1.27,3.87-8.69,6.26-12,7.24-12.08,3.64-24.48,2.58-36.58,4.59-2.49.42-12.64,1.13-14.32,4.61-4.22,8.75,9.4,11.6,15.28,12,15.35,1,28-4.54,42.83-11.62,5.08-2.42,16.09-8.61,20.57-4.51,1.81,1.66-8.36,8.21-9,8.59-9.69,5.79-20.29,9.39-29.9,15.45-2.15,1.35-8.77,5-7.43,8,2.51,5.77,14.1,1.75,19.09-.48,15.7-7,29.72-20.84,46.13-16.92Z"/><path d="M462.56,272.69l-313.47.91V68.3h313.4Z"/><rect class="cls-4" x="154.29" y="78.57" width="302.62" height="183.46"/><path class="cls-5" d="M114.24,270.61h381.4s0,19.76-38.09,18h-305s-38.34,1-38.34-18"/><path d="M343.25,283.81H266.63a5,5,0,0,1-5-5h86.63a5,5,0,0,1-5,5"/><path class="cls-6" d="M322.45,148.67a3.08,3.08,0,0,0-2.67,1.55l-55.07,95.34a3.31,3.31,0,0,0-.29.67c1.66,1.11,3.36,2.14,5.09,3.12a3,3,0,0,0,.54-.7l54.18-93.79h23.82l12,21.15a3.09,3.09,0,1,0,5.36-3.07h0l-12.91-22.71a3.09,3.09,0,0,0-2.68-1.56Z"/><path class="cls-6" d="M295.66,96.45l-44.73,77.23a2.29,2.29,0,0,0-.14.27l-.12.29c0,.1-.06.19-.08.29s0,.21-.05.31a1.63,1.63,0,0,0,0,.31c0,.1,0,.21,0,.31s0,.2,0,.3a1.73,1.73,0,0,0,.07.31c0,.09.06.19.09.29s.08.19.13.28.05.09.07.13l14.27,24.77a2.26,2.26,0,0,0,.16.26l.2.24a2.18,2.18,0,0,0,.21.22,2.31,2.31,0,0,0,.24.2l.25.18.27.14a1.78,1.78,0,0,0,.29.12,1.4,1.4,0,0,0,.29.09l.3.06.31,0h26.78l.31-.05.3-.07.29-.1.28-.13a4.24,4.24,0,0,0,.51-.34l.23-.21.21-.23.18-.25a2.26,2.26,0,0,0,.16-.26c.05-.09.09-.19.13-.28s.07-.2.1-.3.05-.2.07-.3,0-.2,0-.3,0-.21,0-.31a1.56,1.56,0,0,0,0-.31c0-.1,0-.2-.05-.31a2.45,2.45,0,0,0-.08-.29,2.49,2.49,0,0,0-.11-.29,2.44,2.44,0,0,0-.14-.28l-.16-.26-.19-.24a2.39,2.39,0,0,0-.22-.23l-.23-.2-.25-.18-.27-.14-.29-.13L295,197a1.59,1.59,0,0,0-.3-.06l-.31,0H269.64l-12.48-21.67,43.91-75.8Z"/><path class="cls-6" d="M267.19,148.82a3.1,3.1,0,0,0-.09,6.19h25.8l26.86,46.66a3.07,3.07,0,0,0,2.67,1.54H348a3.09,3.09,0,0,0,.09-6.18H324.22l-26.87-46.66a3.08,3.08,0,0,0-2.67-1.55Z"/></g></g></svg>