<svg xmlns="http://www.w3.org/2000/svg" viewBox="0 0 270.24 358.28"><defs><style>.cls-1{fill:#fff;}</style></defs><title>Asset 1</title><g id="Layer_2" data-name="Layer 2"><g id="Layer_2-2" data-name="Layer 2"><path class="cls-1" d="M168.58,122.37a7.25,7.25,0,0,0-6.26,3.61L33.28,349.4a7,7,0,0,0-.69,1.59q5.83,3.87,11.94,7.29a7.35,7.35,0,0,0,1.26-1.62l127-219.79h55.81l28.17,49.55a7.23,7.23,0,1,0,12.56-7.17h0L239,126a7.21,7.21,0,0,0-6.28-3.66Z"/><path class="cls-1" d="M105.81,0,1,181a6.42,6.42,0,0,0-.33.64c-.1.22-.19.45-.27.67a6.66,6.66,0,0,0-.19.7,6,6,0,0,0-.13.72,5.68,5.68,0,0,0,0,.72,5.77,5.77,0,0,0,0,.72q0,.36.09.72a6,6,0,0,0,.16.71c.07.23.14.46.23.68a6.62,6.62,0,0,0,.3.66c0,.11.11.21.17.32l33.42,58c.12.2.25.41.39.6a6.26,6.26,0,0,0,.45.57c.16.18.33.35.51.52s.36.32.55.47a6.25,6.25,0,0,0,.6.4c.21.13.42.24.63.35a9.72,9.72,0,0,0,1.36.49,5.94,5.94,0,0,0,.71.14,5.85,5.85,0,0,0,.72.07h62q.36,0,.72,0a5.67,5.67,0,0,0,.72-.09c.24,0,.47-.11.7-.18a6.2,6.2,0,0,0,.69-.23c.22-.09.43-.2.65-.31a5.63,5.63,0,0,0,.62-.37,6.22,6.22,0,0,0,.58-.43,5,5,0,0,0,.54-.49,6.81,6.81,0,0,0,.91-1.12,4.83,4.83,0,0,0,.37-.62,6.67,6.67,0,0,0,.31-.66,5.44,5.44,0,0,0,.23-.68,5.65,5.65,0,0,0,.17-.71c0-.23.08-.48.1-.71a5.93,5.93,0,0,0,0-.73,5.79,5.79,0,0,0,0-.72q0-.36-.12-.72c-.06-.23-.12-.46-.19-.7a6.16,6.16,0,0,0-.26-.67c-.1-.22-.2-.44-.32-.65s-.25-.41-.39-.61a6.26,6.26,0,0,0-.45-.57,7.38,7.38,0,0,0-1.05-1c-.19-.15-.39-.29-.59-.42s-.41-.24-.63-.35-.44-.2-.67-.29a7,7,0,0,0-.69-.21c-.23-.06-.47-.11-.71-.15s-.47-.06-.71-.08h-58L15.59,184.6,118.48,7Z"/><path class="cls-1" d="M39.08,122.72a7.25,7.25,0,0,0-.2,14.5H99.32l63,109.33a7.21,7.21,0,0,0,6.26,3.62h60a7.25,7.25,0,0,0,.2-14.49h-56l-63-109.33a7.23,7.23,0,0,0-6.26-3.63Z"/></g></g></svg>