<?xml version="1.0" encoding="UTF-8" standalone="no"?>
<!-- Created with Inkscape (http://www.inkscape.org/) -->

<svg
   xmlns:dc="http://purl.org/dc/elements/1.1/"
   xmlns:cc="http://creativecommons.org/ns#"
   xmlns:rdf="http://www.w3.org/1999/02/22-rdf-syntax-ns#"
   xmlns:svg="http://www.w3.org/2000/svg"
   xmlns="http://www.w3.org/2000/svg"
   xmlns:sodipodi="http://sodipodi.sourceforge.net/DTD/sodipodi-0.dtd"
   xmlns:inkscape="http://www.inkscape.org/namespaces/inkscape"
   width="119.252"
   height="200"
   viewBox="0 0 119.252 200"
   id="svg4146"
   version="1.1"
   inkscape:version="0.91 r13725"
   sodipodi:docname="logobf.svg">
  <defs
     id="defs4148" />
  <sodipodi:namedview
     id="base"
     pagecolor="#ffffff"
     bordercolor="#666666"
     borderopacity="1.0"
     inkscape:pageopacity="0.0"
     inkscape:pageshadow="2"
     inkscape:zoom="0.49497475"
     inkscape:cx="-21.703849"
     inkscape:cy="540.92094"
     inkscape:document-units="px"
     inkscape:current-layer="layer1"
     showgrid="false"
     units="px"
     inkscape:window-width="1366"
     inkscape:window-height="705"
     inkscape:window-x="-8"
     inkscape:window-y="-8"
     inkscape:window-maximized="1" />
  <metadata
     id="metadata4151">
    <rdf:RDF>
      <cc:Work
         rdf:about="">
        <dc:format>image/svg+xml</dc:format>
        <dc:type
           rdf:resource="http://purl.org/dc/dcmitype/StillImage" />
        <dc:title></dc:title>
      </cc:Work>
    </rdf:RDF>
  </metadata>
  <g
     inkscape:label="Layer 1"
     inkscape:groupmode="layer"
     id="layer1"
     transform="translate(0,-852.36218)">
    <path
       style="color:#000000;font-style:normal;font-variant:normal;font-weight:normal;font-stretch:normal;font-size:medium;line-height:normal;font-family:sans-serif;text-indent:0;text-align:start;text-decoration:none;text-decoration-line:none;text-decoration-style:solid;text-decoration-color:#000000;letter-spacing:normal;word-spacing:normal;text-transform:none;direction:ltr;block-progression:tb;writing-mode:lr-tb;baseline-shift:baseline;text-anchor:start;white-space:normal;clip-rule:nonzero;display:inline;overflow:visible;visibility:visible;opacity:1;isolation:auto;mix-blend-mode:normal;color-interpolation:sRGB;color-interpolation-filters:linearRGB;solid-color:#000000;solid-opacity:1;fill:#000000;fill-opacity:1;fill-rule:nonzero;stroke:none;stroke-width:10;stroke-linecap:butt;stroke-linejoin:round;stroke-miterlimit:4;stroke-dasharray:none;stroke-dashoffset:0;stroke-opacity:1;color-rendering:auto;image-rendering:auto;shape-rendering:auto;text-rendering:auto;enable-background:accumulate"
       d="m 60.696675,852.363 a 4.1643989,4.1643937 0 0 0 -3.671134,2.1324 L 16.10303,925.37736 5.9224068,943.0092 a 4.1643989,4.1643937 0 0 0 -0.013,0.0244 l -3.3458241,5.7954 a 4.1643989,4.1643937 0 0 0 0,4.16398 L 16.10305,976.44464 a 4.1643989,4.1643937 0 0 0 3.606074,2.08199 l 19.871615,0 -38.9917888,67.53617 a 4.1643989,4.1643937 0 1 0 7.212149,4.1639 L 58.905843,961.71293 a 4.1643989,4.1643937 0 0 0 0.057,-0.10898 l 1.649342,-2.85622 10.218013,17.69691 a 4.1643989,4.1643937 0 0 0 3.606074,2.08199 l 27.080498,0 a 4.1643989,4.1643937 0 1 0 0,-8.32796 l -24.676445,0 -11.135404,-19.28768 11.135404,-19.28767 22.272428,0 12.337447,21.36966 a 4.1643989,4.1643937 0 1 0 7.2121,-4.16398 l -13.53945,-23.45164 a 4.1643989,4.1643937 0 0 0 -3.60608,-2.082 l -27.080498,0 a 4.1643989,4.1643937 0 0 0 -3.606074,2.082 l -10.218013,17.6969 -10.216403,-17.6969 a 4.1643989,4.1643937 0 0 0 -3.606074,-2.082 l -19.870005,0 37.318067,-64.63598 a 4.1643989,4.1643937 0 0 0 -3.541005,-6.29639 z m -38.583528,79.26033 22.272428,0 11.135394,19.28767 -11.135394,19.28767 -22.272428,0 -11.135404,-19.28767 2.156823,-3.73782 8.978581,-15.54985 z"
       id="path4163"
       inkscape:export-xdpi="300"
       inkscape:export-ydpi="300"
       inkscape:connector-curvature="0" />
  </g>
</svg>
