<?xml version="1.0"?>
<svg xmlns="http://www.w3.org/2000/svg" id="Capa_1" enable-background="new 0 0 512 512" height="512px" viewBox="0 0 512 512" width="512px"><g><path d="m470.5 53.5h-22.725c-4.142 0-7.5 3.358-7.5 7.5s3.358 7.5 7.5 7.5h22.725c14.612 0 26.5 11.888 26.5 26.5v38.5h-482v-38.5c0-14.612 11.888-26.5 26.5-26.5h374.74c4.142 0 7.5-3.358 7.5-7.5s-3.358-7.5-7.5-7.5h-374.74c-22.883 0-41.5 18.617-41.5 41.5v96.961c0 4.142 3.358 7.5 7.5 7.5s7.5-3.358 7.5-7.5v-43.461h482v268.5c0 14.612-11.888 26.5-26.5 26.5h-429c-14.612 0-26.5-11.888-26.5-26.5v-193.225c0-4.142-3.358-7.5-7.5-7.5s-7.5 3.358-7.5 7.5v193.225c0 22.883 18.617 41.5 41.5 41.5h429c22.883 0 41.5-18.617 41.5-41.5v-322c0-22.883-18.617-41.5-41.5-41.5z" data-original="#000000" class="active-path" data-old_color="#000000" fill="#122433"/><path d="m40.5 100.672c0 12.958 10.542 23.5 23.5 23.5s23.5-10.542 23.5-23.5-10.542-23.5-23.5-23.5-23.5 10.542-23.5 23.5zm32 0c0 4.687-3.813 8.5-8.5 8.5s-8.5-3.813-8.5-8.5 3.813-8.5 8.5-8.5 8.5 3.813 8.5 8.5z" data-original="#000000" class="active-path" data-old_color="#000000" fill="#122433"/><path d="m97.5 100.672c0 12.958 10.542 23.5 23.5 23.5s23.5-10.542 23.5-23.5-10.542-23.5-23.5-23.5-23.5 10.542-23.5 23.5zm32 0c0 4.687-3.813 8.5-8.5 8.5s-8.5-3.813-8.5-8.5 3.813-8.5 8.5-8.5 8.5 3.813 8.5 8.5z" data-original="#000000" class="active-path" data-old_color="#000000" fill="#122433"/><path d="m154.5 100.672c0 12.958 10.542 23.5 23.5 23.5s23.5-10.542 23.5-23.5-10.542-23.5-23.5-23.5-23.5 10.542-23.5 23.5zm32 0c0 4.687-3.813 8.5-8.5 8.5s-8.5-3.813-8.5-8.5 3.813-8.5 8.5-8.5 8.5 3.813 8.5 8.5z" data-original="#000000" class="active-path" data-old_color="#000000" fill="#122433"/><path d="m256 356.296c16.588 0 32.184-6.46 43.913-18.19 2.929-2.929 2.929-7.678 0-10.606-2.929-2.93-7.678-2.929-10.606 0-8.896 8.897-20.725 13.796-33.307 13.796-25.973 0-47.103-21.13-47.103-47.103s21.13-47.103 47.103-47.103 47.103 21.13 47.103 47.103c0 3.012-.286 6.026-.849 8.957-.782 4.067 1.882 7.999 5.95 8.781 4.066.778 7.999-1.882 8.781-5.95.742-3.862 1.119-7.828 1.119-11.788 0-34.244-27.859-62.103-62.103-62.103s-62.103 27.859-62.103 62.103 27.858 62.103 62.102 62.103z" data-original="#000000" class="active-path" data-old_color="#000000" fill="#122433"/><path d="m146.958 327.674c-2.384 2.402-2.865 6.103-1.172 9.034l18.289 31.677c1.691 2.93 5.137 4.364 8.409 3.501l26.573-7.015 24.206 13.976 7.211 26.52c.888 3.265 3.853 5.532 7.237 5.532h36.577c3.384 0 6.349-2.267 7.237-5.532l7.211-26.52 24.206-13.976 26.573 7.015c3.271.865 6.718-.57 8.409-3.501l18.289-31.677c1.692-2.931 1.212-6.632-1.172-9.034l-19.361-19.506v-27.951l19.361-19.505c2.384-2.402 2.865-6.103 1.172-9.034l-18.289-31.677c-1.692-2.931-5.138-4.366-8.409-3.501l-26.573 7.015-24.206-13.976-7.211-26.52c-.888-3.266-3.853-5.532-7.237-5.532h-36.577c-3.384 0-6.349 2.267-7.237 5.532l-7.211 26.52-24.206 13.976-26.573-7.015c-3.27-.863-6.717.571-8.409 3.501l-18.289 31.677c-1.692 2.931-1.212 6.632 1.172 9.034l19.361 19.505v27.951zm32.184-55.83-17.5-17.63 12.556-21.747 24.018 6.34c1.913.506 3.95.234 5.665-.756l29.559-17.066c1.714-.99 2.968-2.617 3.487-4.527l6.518-23.97h25.111l6.518 23.97c.52 1.91 1.773 3.538 3.487 4.527l29.559 17.066c1.714.99 3.751 1.263 5.665.756l24.018-6.34 12.556 21.747-17.5 17.63c-1.395 1.405-2.177 3.304-2.177 5.284v34.131c0 1.979.783 3.878 2.177 5.284l17.5 17.63-12.556 21.747-24.018-6.34c-1.914-.505-3.95-.234-5.665.756l-29.559 17.066c-1.714.99-2.968 2.617-3.487 4.527l-6.518 23.97h-25.111l-6.518-23.97c-.52-1.91-1.773-3.537-3.487-4.527l-29.559-17.066c-1.714-.989-3.75-1.261-5.665-.756l-24.018 6.34-12.556-21.747 17.5-17.63c1.395-1.405 2.177-3.304 2.177-5.284v-34.131c0-1.98-.782-3.879-2.177-5.284z" data-original="#000000" class="active-path" data-old_color="#000000" fill="#122433"/><path d="m377 196.5h64c4.142 0 7.5-3.358 7.5-7.5s-3.358-7.5-7.5-7.5h-64c-4.142 0-7.5 3.358-7.5 7.5s3.358 7.5 7.5 7.5z" data-original="#000000" class="active-path" data-old_color="#000000" fill="#122433"/><path d="m377 228.5h64c4.142 0 7.5-3.358 7.5-7.5s-3.358-7.5-7.5-7.5h-64c-4.142 0-7.5 3.358-7.5 7.5s3.358 7.5 7.5 7.5z" data-original="#000000" class="active-path" data-old_color="#000000" fill="#122433"/><path d="m61 393.5c-4.142 0-7.5 3.358-7.5 7.5s3.358 7.5 7.5 7.5h30c4.142 0 7.5-3.358 7.5-7.5s-3.358-7.5-7.5-7.5z" data-original="#000000" class="active-path" data-old_color="#000000" fill="#122433"/><path d="m109.802 223.32v-35.399c0-8.879-7.224-16.103-16.103-16.103h-35.399c-8.879 0-16.103 7.224-16.103 16.103v35.399c0 8.879 7.224 16.103 16.103 16.103h35.4c8.879 0 16.102-7.224 16.102-16.103zm-15 0c0 .608-.495 1.103-1.103 1.103h-35.399c-.608 0-1.103-.495-1.103-1.103v-35.399c0-.608.495-1.103 1.103-1.103h35.4c.608 0 1.103.495 1.103 1.103v35.399z" data-original="#000000" class="active-path" data-old_color="#000000" fill="#122433"/></g> </svg>
