<?xml version="1.0" encoding="UTF-8" standalone="no"?>
<svg
   xmlns:dc="http://purl.org/dc/elements/1.1/"
   xmlns:cc="http://creativecommons.org/ns#"
   xmlns:rdf="http://www.w3.org/1999/02/22-rdf-syntax-ns#"
   xmlns:svg="http://www.w3.org/2000/svg"
   xmlns="http://www.w3.org/2000/svg"
   xmlns:sodipodi="http://sodipodi.sourceforge.net/DTD/sodipodi-0.dtd"
   xmlns:inkscape="http://www.inkscape.org/namespaces/inkscape"
   id="Layer_5"
   enable-background="new 0 0 64 64"
   height="512"
   viewBox="0 0 64 64"
   width="512"
   version="1.1"
   inkscape:version="0.91 r13725"
   sodipodi:docname="select.svg">
  <metadata
     id="metadata17">
    <rdf:RDF>
      <cc:Work
         rdf:about="">
        <dc:format>image/svg+xml</dc:format>
        <dc:type
           rdf:resource="http://purl.org/dc/dcmitype/StillImage" />
        <dc:title />
      </cc:Work>
    </rdf:RDF>
  </metadata>
  <defs
     id="defs15" />
  <sodipodi:namedview
     pagecolor="#ffffff"
     bordercolor="#666666"
     borderopacity="1"
     objecttolerance="10"
     gridtolerance="10"
     guidetolerance="10"
     inkscape:pageopacity="0"
     inkscape:pageshadow="2"
     inkscape:window-width="1366"
     inkscape:window-height="705"
     id="namedview13"
     showgrid="false"
     showguides="true"
     inkscape:guide-bbox="true"
     inkscape:zoom="0.32593203"
     inkscape:cx="-337.66"
     inkscape:cy="463.52686"
     inkscape:window-x="-8"
     inkscape:window-y="-8"
     inkscape:window-maximized="1"
     inkscape:current-layer="Layer_5">
    <sodipodi:guide
       position="15.820016,15.820016"
       orientation="-0.70710678,0.70710678"
       id="guide4507"
       inkscape:label=""
       inkscape:color="rgb(0,0,255)" />
    <sodipodi:guide
       position="0,64"
       orientation="0.70710678,0.70710678"
       id="guide4509"
       inkscape:label=""
       inkscape:color="rgb(0,0,255)" />
  </sodipodi:namedview>
  <path
     style="fill:#21252f;fill-opacity:1;stroke:none;stroke-width:0.25;stroke-miterlimit:4;stroke-dasharray:none;stroke-opacity:1"
     d="m 31.960431,28.014063 c -1.508137,0 -2.7228,1.477466 -2.7228,3.276845 l 0,15.666604 -4.333616,-3.819258 -0.0018,0 c -1.248957,-1.131106 -3.035332,-0.978918 -4.137893,0.354152 -0.839352,1.014835 -0.839352,2.651577 0,3.666415 l 9.117567,11.023471 c 1.439395,1.740316 3.359053,2.702746 5.400565,2.702746 l 3.041499,0 c 2.038769,9.53e-4 3.956193,-0.961053 5.393634,-2.699019 1.342764,-1.623493 2.130547,-3.779552 2.220503,-6.069059 l 0.360267,-9.228477 0,-0.0019 c -8.86e-4,-1.798332 -1.217487,-3.276846 -2.734924,-3.276846 -0.439484,0 -0.843485,0.155984 -1.210709,0.382112 -0.225845,-1.527027 -1.30527,-2.721384 -2.656979,-2.721384 -0.439245,10e-4 -0.844383,0.158313 -1.212443,0.382113 -0.227842,-1.526353 -1.303947,-2.719577 -2.65525,-2.719523 -0.410327,0 -0.784498,0.152832 -1.132768,0.348563 l 0,-3.990744 c -9.67e-4,-1.798263 -1.217477,-3.276838 -2.734914,-3.276838 z m 0.01036,1.891923 c 0.618988,0 1.134499,0.612466 1.134499,1.384922 l 0,11.698227 c 0.0011,0.256296 0.08617,0.491319 0.228631,0.663571 0.142451,0.172232 0.344952,0.281459 0.566384,0.281459 0.444582,0 0.793285,-0.433426 0.793285,-0.946894 l 0,-4.775469 c 8.85e-4,-0.771408 0.513293,-1.384924 1.14489,-1.384924 0.618988,0 1.134501,0.612467 1.134501,1.384924 l 0,4.777333 c 0.0011,0.256296 0.08617,0.491319 0.228632,0.663571 0.142452,0.172232 0.34379,0.280954 0.566383,0.279594 0.444582,0 0.795015,-0.431561 0.795015,-0.945029 l 0,-2.438062 0,-0.0019 c 0.0018,-0.770503 0.513821,-1.384924 1.144893,-1.384924 0.618986,0 1.132768,0.612468 1.132768,1.384924 l 0,2.398919 0,0.04102 0,0.0057 c 4e-6,6.29e-4 -6e-6,0.0012 0,0.0019 -4.4e-5,5.97e-4 -4e-6,0.0037 0,0.0037 9e-6,1.16e-4 0.0011,0.0059 0.0021,0.0107 0.01103,0.504131 0.355442,0.923127 0.79285,0.923127 0.444583,0 0.795015,-0.431563 0.795015,-0.945029 l 0,-0.100657 c 0,-0.74374 0.528472,-1.384925 1.144894,-1.384925 0.618939,-4.9e-5 1.133619,0.614557 1.134498,1.345782 l -0.3585,9.181845 c -0.07242,1.823247 -0.700904,3.53904 -1.766702,4.827661 -1.141288,1.379891 -2.651394,2.136103 -4.260868,2.136103 l -3.041499,0 c -1.611368,0 -3.124568,-0.755727 -4.267796,-2.137965 l -9.11753,-11.023422 c -0.227253,-0.274766 -0.227253,-0.735501 0,-1.010267 0.551452,-0.666742 1.420567,-0.741082 2.05076,-0.169622 l 0.0018,0 5.610146,4.941364 c 0.240967,0.212714 0.568472,0.243582 0.836585,0.08014 l 0.0018,0 c 0.267657,-0.165265 0.426745,-0.491579 0.42782,-0.840646 l 0,-17.54175 c 8.86e-4,-0.771408 0.513292,-1.384924 1.144891,-1.384924 z"
     id="path4500"
     inkscape:connector-curvature="0" />
  <path
     d="m 13.236715,38.522039 c -1.224183,0 -2.220405,0.996221 -2.220405,2.220406 0,0.963656 0.620973,1.777805 1.48027,2.084221 l 0,15.742635 1.48027,0 0,-15.742635 c 0.859297,-0.306416 1.480272,-1.120565 1.480272,-2.084221 0,-1.224185 -0.996222,-2.220406 -2.220407,-2.220406 z m 0,2.960541 c -0.408555,0 -0.740135,-0.33158 -0.740135,-0.740135 0,-0.408555 0.33158,-0.740136 0.740135,-0.740136 0.408554,0 0.740135,0.331581 0.740135,0.740136 0,0.408555 -0.331581,0.740135 -0.740135,0.740135 z"
     id="path5"
     inkscape:connector-curvature="0"
     sodipodi:nodetypes="ssccccsssssss"
     style="fill:#21252f;fill-opacity:1;stroke:none" />
  <g
     id="g4148"
     transform="matrix(0.125,0,0,0.125,-67.945246,-10.580646)"
     style="fill:#21252f;fill-opacity:1">
    <g
       id="g4150"
       style="fill:#21252f;fill-opacity:1" />
  </g>
  <g
     id="g4154"
     transform="matrix(0.125,0,0,0.125,-67.945246,-10.580646)"
     style="fill:#21252f;fill-opacity:1">
    <g
       id="g4156"
       style="fill:#21252f;fill-opacity:1" />
  </g>
  <g
     id="g4160"
     transform="matrix(0.125,0,0,0.125,-67.945246,-10.580646)"
     style="fill:#21252f;fill-opacity:1">
    <g
       id="g4162"
       style="fill:#21252f;fill-opacity:1" />
  </g>
  <g
     id="g4166"
     transform="matrix(0.125,0,0,0.125,-67.945246,-10.580646)"
     style="fill:#21252f;fill-opacity:1">
    <g
       id="g4168"
       style="fill:#21252f;fill-opacity:1" />
  </g>
  <g
     id="g4172"
     transform="matrix(0.125,0,0,0.125,-67.945246,-10.580646)"
     style="fill:#21252f;fill-opacity:1">
    <g
       id="g4174"
       style="fill:#21252f;fill-opacity:1" />
  </g>
  <g
     id="g4184"
     transform="matrix(0.125,0,0,0.125,-67.945246,-10.580646)"
     style="fill:#21252f;fill-opacity:1" />
  <g
     id="g4186"
     transform="matrix(0.125,0,0,0.125,-67.945246,-10.580646)"
     style="fill:#21252f;fill-opacity:1" />
  <g
     id="g4188"
     transform="matrix(0.125,0,0,0.125,-67.945246,-10.580646)"
     style="fill:#21252f;fill-opacity:1" />
  <g
     id="g4190"
     transform="matrix(0.125,0,0,0.125,-67.945246,-10.580646)"
     style="fill:#21252f;fill-opacity:1" />
  <g
     id="g4192"
     transform="matrix(0.125,0,0,0.125,-67.945246,-10.580646)"
     style="fill:#21252f;fill-opacity:1" />
  <g
     id="g4194"
     transform="matrix(0.125,0,0,0.125,-67.945246,-10.580646)"
     style="fill:#21252f;fill-opacity:1" />
  <g
     id="g4196"
     transform="matrix(0.125,0,0,0.125,-67.945246,-10.580646)"
     style="fill:#21252f;fill-opacity:1" />
  <g
     id="g4198"
     transform="matrix(0.125,0,0,0.125,-67.945246,-10.580646)"
     style="fill:#21252f;fill-opacity:1" />
  <g
     id="g4200"
     transform="matrix(0.125,0,0,0.125,-67.945246,-10.580646)"
     style="fill:#21252f;fill-opacity:1" />
  <g
     id="g4202"
     transform="matrix(0.125,0,0,0.125,-67.945246,-10.580646)"
     style="fill:#21252f;fill-opacity:1" />
  <g
     id="g4204"
     transform="matrix(0.125,0,0,0.125,-67.945246,-10.580646)"
     style="fill:#21252f;fill-opacity:1" />
  <g
     id="g4206"
     transform="matrix(0.125,0,0,0.125,-67.945246,-10.580646)"
     style="fill:#21252f;fill-opacity:1" />
  <g
     id="g4208"
     transform="matrix(0.125,0,0,0.125,-67.945246,-10.580646)"
     style="fill:#21252f;fill-opacity:1" />
  <g
     id="g4210"
     transform="matrix(0.125,0,0,0.125,-67.945246,-10.580646)"
     style="fill:#21252f;fill-opacity:1" />
  <g
     id="g4212"
     transform="matrix(0.125,0,0,0.125,-67.945246,-10.580646)"
     style="fill:#21252f;fill-opacity:1" />
  <path
     style="color:#000000;font-style:normal;font-variant:normal;font-weight:normal;font-stretch:normal;font-size:medium;line-height:normal;font-family:sans-serif;text-indent:0;text-align:start;text-decoration:none;text-decoration-line:none;text-decoration-style:solid;text-decoration-color:#000000;letter-spacing:normal;word-spacing:normal;text-transform:none;direction:ltr;block-progression:tb;writing-mode:lr-tb;baseline-shift:baseline;text-anchor:start;white-space:normal;clip-rule:nonzero;display:inline;overflow:visible;visibility:visible;opacity:1;isolation:auto;mix-blend-mode:normal;color-interpolation:sRGB;color-interpolation-filters:linearRGB;solid-color:#000000;solid-opacity:1;fill:#21252f;fill-opacity:1;fill-rule:nonzero;stroke:none;stroke-width:1.25;stroke-linecap:round;stroke-linejoin:round;stroke-miterlimit:4;stroke-dasharray:none;stroke-dashoffset:0;stroke-opacity:1;color-rendering:auto;image-rendering:auto;shape-rendering:auto;text-rendering:auto;enable-background:accumulate"
     d="m 31.979857,1.7671791 c -5.900746,0 -10.699895,4.7991497 -10.699895,10.6998959 0,5.900745 4.799149,10.699895 10.699895,10.699895 5.900747,0 10.699896,-4.79915 10.699896,-10.699895 1e-6,-5.9007462 -4.799149,-10.6998959 -10.699896,-10.6998959 z m 0,1.3912907 c 5.148838,0 9.308606,4.1597681 9.308605,9.3086052 0,5.148836 -4.159768,9.308604 -9.308605,9.308604 -5.148836,0 -9.308605,-4.159768 -9.308605,-9.308604 0,-5.1488371 4.159769,-9.3086052 9.308605,-9.3086052 z"
     id="path4505"
     inkscape:connector-curvature="0" />
  <path
     style="color:#000000;font-style:normal;font-variant:normal;font-weight:normal;font-stretch:normal;font-size:medium;line-height:normal;font-family:sans-serif;text-indent:0;text-align:start;text-decoration:none;text-decoration-line:none;text-decoration-style:solid;text-decoration-color:#000000;letter-spacing:normal;word-spacing:normal;text-transform:none;direction:ltr;block-progression:tb;writing-mode:lr-tb;baseline-shift:baseline;text-anchor:start;white-space:normal;clip-rule:nonzero;display:inline;overflow:visible;visibility:visible;opacity:1;isolation:auto;mix-blend-mode:normal;color-interpolation:sRGB;color-interpolation-filters:linearRGB;solid-color:#000000;solid-opacity:1;fill:#21252f;fill-opacity:1;fill-rule:nonzero;stroke:none;stroke-width:1.25;stroke-linecap:round;stroke-linejoin:round;stroke-miterlimit:4;stroke-dasharray:none;stroke-dashoffset:0;stroke-opacity:1;color-rendering:auto;image-rendering:auto;shape-rendering:auto;text-rendering:auto;enable-background:accumulate"
     d="m 52.89798,11.534244 c -5.900746,0 -10.697721,4.79915 -10.697721,10.699895 0,5.900746 4.796975,10.697722 10.697721,10.697722 5.900746,0 10.699896,-4.796976 10.699896,-10.697722 0,-5.900745 -4.79915,-10.699895 -10.699896,-10.699895 z m 0,1.39129 c 5.148836,0 9.308604,4.159769 9.308604,9.308605 0,5.148837 -4.159768,9.306431 -9.308604,9.306431 -5.148837,0 -9.306431,-4.157594 -9.306431,-9.306431 0,-5.148836 4.157594,-9.308605 9.306431,-9.308605 z"
     id="circle4513"
     inkscape:connector-curvature="0" />
  <path
     style="color:#000000;font-style:normal;font-variant:normal;font-weight:normal;font-stretch:normal;font-size:medium;line-height:normal;font-family:sans-serif;text-indent:0;text-align:start;text-decoration:none;text-decoration-line:none;text-decoration-style:solid;text-decoration-color:#000000;letter-spacing:normal;word-spacing:normal;text-transform:none;direction:ltr;block-progression:tb;writing-mode:lr-tb;baseline-shift:baseline;text-anchor:start;white-space:normal;clip-rule:nonzero;display:inline;overflow:visible;visibility:visible;opacity:1;isolation:auto;mix-blend-mode:normal;color-interpolation:sRGB;color-interpolation-filters:linearRGB;solid-color:#000000;solid-opacity:1;fill:#21252f;fill-opacity:1;fill-rule:evenodd;stroke:none;stroke-width:1.25;stroke-linecap:butt;stroke-linejoin:miter;stroke-miterlimit:4;stroke-dasharray:none;stroke-dashoffset:0;stroke-opacity:1;color-rendering:auto;image-rendering:auto;shape-rendering:auto;text-rendering:auto;enable-background:accumulate"
     d="m 42.318106,12.846027 -0.695645,1.204336 3.672173,2.119389 0.695646,-1.204336 z"
     id="path4519"
     inkscape:connector-curvature="0"
     sodipodi:nodetypes="ccccc" />
  <path
     id="path4532"
     d="m 36.918307,11.999997 1.188489,-1.62295 -1.314056,-2.2771516 -2.000277,0.2178583 -0.65483,-0.3767006 -0.81179,-1.8426911 -2.626855,0 -0.812416,1.8414357 -0.655458,0.3767006 -1.99965,-0.2178584 -1.3128,2.2765231 1.187861,1.624834 0,0.7534 -1.187861,1.624833 1.313428,2.275269 1.999649,-0.217858 0.655459,0.3767 0.811788,1.842691 2.626855,0 0.81179,-1.841436 0.65483,-0.376701 2.000277,0.21786 1.313428,-2.27527 -1.187861,-1.626088 0,-0.7534 z m -0.308267,2.461107 -0.494732,0.85762 -1.594698,-0.17391 -1.369303,0.786676 -0.644158,1.467874 -0.98821,0 -0.647296,-1.467874 -1.366166,-0.788559 -1.594069,0.17391 -0.494733,-0.85762 0.946774,-1.293337 0,-1.578373 -0.946774,-1.293338 0.494733,-0.8576198 1.594069,0.1739085 1.366166,-0.7885577 0.647296,-1.4678754 0.989465,0 0.646668,1.4678754 1.366167,0.7885577 1.594696,-0.1739085 0.494734,0.8576198 -0.94803,1.293338 0,1.578373 0.947401,1.29522 z"
     inkscape:connector-curvature="0"
     style="fill:#21252f;fill-opacity:1;stroke:none" />
  <path
     id="path4534"
     d="m 32.012416,9.8653631 c -1.386962,0 -2.511334,1.1243709 -2.511334,2.5113329 0,1.386963 1.124372,2.511335 2.511334,2.511335 1.386963,0 2.511334,-1.124372 2.511334,-2.511335 0,-1.386962 -1.124371,-2.5113329 -2.511334,-2.5113329 z m 0,3.7670009 c -0.69348,0 -1.255667,-0.562186 -1.255667,-1.255668 0,-0.69348 0.562187,-1.255666 1.255667,-1.255666 0.693483,0 1.255667,0.562186 1.255667,1.255666 0,0.693482 -0.562184,1.255668 -1.255667,1.255668 z"
     inkscape:connector-curvature="0"
     style="fill:#21252f;fill-opacity:1;stroke:none" />
  <path
     inkscape:connector-curvature="0"
     d="m 57.871159,21.875669 1.188489,-1.62295 -1.314055,-2.277152 -2.000278,0.217858 -0.65483,-0.376699 -0.811789,-1.842692 -2.626855,0 -0.812416,1.841436 -0.655459,0.3767 -1.999649,-0.217858 -1.3128,2.276523 1.187861,1.624834 0,0.7534 -1.187861,1.624833 1.313428,2.275269 1.99965,-0.217858 0.655457,0.376699 0.811789,1.842692 2.626855,0 0.811789,-1.841436 0.65483,-0.3767 2.000278,0.217858 1.313427,-2.275269 -1.187861,-1.626088 0,-0.7534 z m -0.308265,2.461107 -0.494734,0.85762 -1.594697,-0.17391 -1.369304,0.786676 -0.644158,1.467874 -0.988209,0 -0.647296,-1.467874 -1.366167,-0.788559 -1.594068,0.17391 -0.494733,-0.85762 0.946773,-1.293338 0,-1.578372 -0.946773,-1.293338 0.494733,-0.85762 1.594068,0.173909 1.366167,-0.788558 0.647296,-1.467875 0.989465,0 0.646669,1.467875 1.366166,0.788558 1.594696,-0.173909 0.494733,0.85762 -0.948029,1.293338 0,1.578372 0.947402,1.295221 z"
     id="path4655"
     style="fill:#21252f;fill-opacity:1;stroke:none" />
  <path
     inkscape:connector-curvature="0"
     d="m 52.965268,19.741035 c -1.386962,0 -2.511333,1.124372 -2.511333,2.511334 0,1.386963 1.124371,2.511334 2.511333,2.511334 1.386964,0 2.511334,-1.124371 2.511334,-2.511334 0,-1.386962 -1.12437,-2.511334 -2.511334,-2.511334 z m 0,3.767002 c -0.693479,0 -1.255666,-0.562186 -1.255666,-1.255668 0,-0.693481 0.562187,-1.255668 1.255666,-1.255668 0.693483,0 1.255668,0.562187 1.255668,1.255668 0,0.693482 -0.562185,1.255668 -1.255668,1.255668 z"
     id="path4657"
     style="fill:#21252f;fill-opacity:1;stroke:none" />
  <path
     sodipodi:nodetypes="ssccccsssssss"
     inkscape:connector-curvature="0"
     id="path4659"
     d="m 8.594792,58.569301 c 1.2241833,0 2.220405,-0.996221 2.220405,-2.220406 0,-0.963656 -0.620972,-1.777805 -1.4802695,-2.084221 l 0,-15.742635 -1.48027,0 0,15.742635 c -0.8592965,0.306416 -1.4802717,1.120565 -1.4802717,2.084221 0,1.224185 0.9962217,2.220406 2.2204062,2.220406 z m 0,-2.960541 c 0.408555,0 0.7401355,0.33158 0.7401355,0.740135 0,0.408555 -0.3315805,0.740136 -0.7401355,0.740136 -0.4085539,0 -0.7401345,-0.331581 -0.7401345,-0.740136 0,-0.408555 0.3315806,-0.740135 0.7401345,-0.740135 z"
     style="fill:#21252f;fill-opacity:1;stroke:none" />
  <path
     sodipodi:nodetypes="ssccccsssssss"
     inkscape:connector-curvature="0"
     id="path4661"
     d="m 50.95123,38.522039 c 1.224184,0 2.220406,0.996221 2.220406,2.220406 0,0.963656 -0.620973,1.777805 -1.48027,2.084221 l 0,15.742635 -1.48027,0 0,-15.742635 c -0.859297,-0.306416 -1.480272,-1.120565 -1.480272,-2.084221 0,-1.224185 0.996222,-2.220406 2.220406,-2.220406 z m 0,2.960541 c 0.408556,0 0.740136,-0.33158 0.740136,-0.740135 0,-0.408555 -0.33158,-0.740136 -0.740136,-0.740136 -0.408553,0 -0.740134,0.331581 -0.740134,0.740136 0,0.408555 0.331581,0.740135 0.740134,0.740135 z"
     style="fill:#21252f;fill-opacity:1;stroke:none" />
  <path
     d="m 55.593154,58.569301 c -1.224183,0 -2.220405,-0.996221 -2.220405,-2.220406 0,-0.963656 0.620972,-1.777805 1.480269,-2.084221 l 0,-15.742635 1.48027,0 0,15.742635 c 0.859297,0.306416 1.480273,1.120565 1.480273,2.084221 0,1.224185 -0.996223,2.220406 -2.220407,2.220406 z m 0,-2.960541 c -0.408555,0 -0.740136,0.33158 -0.740136,0.740135 0,0.408555 0.331581,0.740136 0.740136,0.740136 0.408554,0 0.740134,-0.331581 0.740134,-0.740136 0,-0.408555 -0.33158,-0.740135 -0.740134,-0.740135 z"
     id="path4663"
     inkscape:connector-curvature="0"
     sodipodi:nodetypes="ssccccsssssss"
     style="fill:#21252f;fill-opacity:1;stroke:none" />
  <path
     inkscape:connector-curvature="0"
     id="path4175"
     d="m 11.172256,11.534244 c 5.900746,0 10.697721,4.79915 10.697721,10.699895 0,5.900746 -4.796975,10.697722 -10.697721,10.697722 -5.9007453,0 -10.69989487,-4.796976 -10.69989487,-10.697722 0,-5.900745 4.79914957,-10.699895 10.69989487,-10.699895 z m 0,1.39129 c -5.1488357,0 -9.3086036,4.159769 -9.3086036,9.308605 0,5.148837 4.1597679,9.306431 9.3086036,9.306431 5.148837,0 9.306431,-4.157594 9.306431,-9.306431 0,-5.148836 -4.157594,-9.308605 -9.306431,-9.308605 z"
     style="color:#000000;font-style:normal;font-variant:normal;font-weight:normal;font-stretch:normal;font-size:medium;line-height:normal;font-family:sans-serif;text-indent:0;text-align:start;text-decoration:none;text-decoration-line:none;text-decoration-style:solid;text-decoration-color:#000000;letter-spacing:normal;word-spacing:normal;text-transform:none;direction:ltr;block-progression:tb;writing-mode:lr-tb;baseline-shift:baseline;text-anchor:start;white-space:normal;clip-rule:nonzero;display:inline;overflow:visible;visibility:visible;opacity:1;isolation:auto;mix-blend-mode:normal;color-interpolation:sRGB;color-interpolation-filters:linearRGB;solid-color:#000000;solid-opacity:1;fill:#21252f;fill-opacity:1;fill-rule:nonzero;stroke:none;stroke-width:1.25;stroke-linecap:round;stroke-linejoin:round;stroke-miterlimit:4;stroke-dasharray:none;stroke-dashoffset:0;stroke-opacity:1;color-rendering:auto;image-rendering:auto;shape-rendering:auto;text-rendering:auto;enable-background:accumulate" />
  <path
     sodipodi:nodetypes="ccccc"
     inkscape:connector-curvature="0"
     id="path4177"
     d="m 21.75213,12.846027 0.695645,1.204336 -3.672173,2.119389 -0.695646,-1.204336 z"
     style="color:#000000;font-style:normal;font-variant:normal;font-weight:normal;font-stretch:normal;font-size:medium;line-height:normal;font-family:sans-serif;text-indent:0;text-align:start;text-decoration:none;text-decoration-line:none;text-decoration-style:solid;text-decoration-color:#000000;letter-spacing:normal;word-spacing:normal;text-transform:none;direction:ltr;block-progression:tb;writing-mode:lr-tb;baseline-shift:baseline;text-anchor:start;white-space:normal;clip-rule:nonzero;display:inline;overflow:visible;visibility:visible;opacity:1;isolation:auto;mix-blend-mode:normal;color-interpolation:sRGB;color-interpolation-filters:linearRGB;solid-color:#000000;solid-opacity:1;fill:#21252f;fill-opacity:1;fill-rule:evenodd;stroke:none;stroke-width:1.25;stroke-linecap:butt;stroke-linejoin:miter;stroke-miterlimit:4;stroke-dasharray:none;stroke-dashoffset:0;stroke-opacity:1;color-rendering:auto;image-rendering:auto;shape-rendering:auto;text-rendering:auto;enable-background:accumulate" />
  <path
     style="fill:#21252f;fill-opacity:1;stroke:none"
     id="path4179"
     d="m 6.1990773,21.875669 -1.1884885,-1.62295 1.3140553,-2.277152 2.0002775,0.217858 0.6548301,-0.376699 0.811789,-1.842692 2.6268543,0 0.812416,1.841436 0.655459,0.3767 1.999649,-0.217858 1.3128,2.276523 -1.187861,1.624834 0,0.7534 1.187861,1.624833 -1.313428,2.275269 -1.99965,-0.217858 -0.655457,0.376699 -0.811789,1.842692 -2.6268543,0 -0.811789,-1.841436 -0.6548301,-0.3767 -2.0002775,0.217858 -1.3134279,-2.275269 1.1878611,-1.626088 0,-0.7534 z m 0.3082658,2.461107 0.4947337,0.85762 1.5946968,-0.17391 1.3693042,0.786676 0.6441572,1.467874 0.988209,0 0.647296,-1.467874 1.366167,-0.788559 1.594068,0.17391 0.494733,-0.85762 -0.946773,-1.293338 0,-1.578372 0.946773,-1.293338 -0.494733,-0.85762 -1.594068,0.173909 -1.366167,-0.788558 -0.647296,-1.467875 -0.989465,0 -0.646668,1.467875 -1.3661659,0.788558 -1.5946967,-0.173909 -0.4947327,0.85762 0.9480287,1.293338 0,1.578372 -0.9474013,1.295221 z"
     inkscape:connector-curvature="0" />
  <path
     style="fill:#21252f;fill-opacity:1;stroke:none"
     id="path4181"
     d="m 11.104968,19.741035 c 1.386962,0 2.511333,1.124372 2.511333,2.511334 0,1.386963 -1.124371,2.511334 -2.511333,2.511334 -1.3869633,0 -2.5113337,-1.124371 -2.5113337,-2.511334 0,-1.386962 1.1243704,-2.511334 2.5113337,-2.511334 z m 0,3.767002 c 0.693479,0 1.255666,-0.562186 1.255666,-1.255668 0,-0.693481 -0.562187,-1.255668 -1.255666,-1.255668 -0.693483,0 -1.2556675,0.562187 -1.2556675,1.255668 0,0.693482 0.5621845,1.255668 1.2556675,1.255668 z"
     inkscape:connector-curvature="0" />
</svg>
